<?xml version="1.0" encoding="UTF-8"?>
<svg version="1.1" xmlns="http://www.w3.org/2000/svg" width="64" height="64">
<path d="M0 0 C3.375 -0.125 3.375 -0.125 7 0 C9 2 9 2 9.125 5.125 C9.08375 6.07375 9.0425 7.0225 9 8 C9.66 8 10.32 8 11 8 C11 10.31 11 12.62 11 15 C10.34 15.33 9.68 15.66 9 16 C8.505 17.485 8.505 17.485 8 19 C7.34 19 6.68 19 6 19 C5.67 19.66 5.34 20.32 5 21 C3.35 21 1.7 21 0 21 C0 20.34 0 19.68 0 19 C-0.99 19 -1.98 19 -3 19 C-3 19.66 -3 20.32 -3 21 C-3.804375 21.12375 -4.60875 21.2475 -5.4375 21.375 C-6.283125 21.58125 -7.12875 21.7875 -8 22 C-9.02835213 23.96946694 -9.02835213 23.96946694 -9.75 26 C-11.40323782 28.64518052 -13.12547205 28.96811817 -16 30 C-17.0206355 31.97653218 -17.0206355 31.97653218 -17.8125 34 C-19.24509892 36.41279818 -20.3698873 37.09589876 -23 38 C-23.66 37.67 -24.32 37.34 -25 37 C-24.814375 37.639375 -24.62875 38.27875 -24.4375 38.9375 C-23.66115881 44.37188833 -23.92826785 49.39240177 -27 54 C-27.68177416 55.32567199 -28.35191436 56.65753688 -29 58 C-29 57.01 -29 56.02 -29 55 C-29.66 55 -30.32 55 -31 55 C-31 56.32 -31 57.64 -31 59 C-35.38585329 59.70173653 -39.55790643 60.10834375 -44 60 C-44 58.35 -44 56.7 -44 55 C-44.66 55 -45.32 55 -46 55 C-46 54.34 -46 53.68 -46 53 C-47.32 53 -48.64 53 -50 53 C-50.66 53 -51.32 53 -52 53 C-51.49396008 50.83125748 -51.00016187 49.00032373 -50 47 C-50.66 47 -51.32 47 -52 47 C-52 45.35 -52 43.7 -52 42 C-51.34 42 -50.68 42 -50 42 C-50 41.34 -50 40.68 -50 40 C-49.34 39.34 -48.68 38.68 -48 38 C-46.68 38 -45.36 38 -44 38 C-44 37.34 -44 36.68 -44 36 C-43.34 36 -42.68 36 -42 36 C-42 35.34 -42 34.68 -42 34 C-38.04 34 -34.08 34 -30 34 C-30 32.02 -30 30.04 -30 28 C-28.68 27.34 -27.36 26.68 -26 26 C-26 26.66 -26 27.32 -26 28 C-25.34 28 -24.68 28 -24 28 C-24 27.34 -24 26.68 -24 26 C-23.34 26 -22.68 26 -22 26 C-22 25.34 -22 24.68 -22 24 C-22.66 23.67 -23.32 23.34 -24 23 C-22.35 21.35 -20.7 19.7 -19 18 C-18.505 18.99 -18.505 18.99 -18 20 C-17.34 20 -16.68 20 -16 20 C-16 19.34 -16 18.68 -16 18 C-15.34 18 -14.68 18 -14 18 C-14 17.34 -14 16.68 -14 16 C-13.34 16 -12.68 16 -12 16 C-12 15.34 -12 14.68 -12 14 C-11.34 14 -10.68 14 -10 14 C-10 13.34 -10 12.68 -10 12 C-9.34 12 -8.68 12 -8 12 C-8 11.34 -8 10.68 -8 10 C-7.34 10 -6.68 10 -6 10 C-6 9.34 -6 8.68 -6 8 C-5.34 8 -4.68 8 -4 8 C-4 6.68 -4 5.36 -4 4 C-3.34 4 -2.68 4 -2 4 C-2 3.34 -2 2.68 -2 2 C-1.34 2 -0.68 2 0 2 C0 1.34 0 0.68 0 0 Z M-27 28 C-27.33 28.66 -27.66 29.32 -28 30 C-27.34 30 -26.68 30 -26 30 C-26.33 29.34 -26.66 28.68 -27 28 Z M-39 39 C-38.67 39.99 -38.34 40.98 -38 42 C-37.34 42 -36.68 42 -36 42 C-36 41.01 -36 40.02 -36 39 C-36.99 39 -37.98 39 -39 39 Z M-27 39 C-26.67 39.99 -26.34 40.98 -26 42 C-25.67 41.01 -25.34 40.02 -25 39 C-25.66 39 -26.32 39 -27 39 Z M-41 41 C-40.67 41.99 -40.34 42.98 -40 44 C-39.34 44 -38.68 44 -38 44 C-38.33 43.01 -38.66 42.02 -39 41 C-39.66 41 -40.32 41 -41 41 Z M-43 43 C-43 43.99 -43 44.98 -43 46 C-42.01 45.67 -41.02 45.34 -40 45 C-40.33 44.34 -40.66 43.68 -41 43 C-41.66 43 -42.32 43 -43 43 Z M-33 45 C-32.67 45.99 -32.34 46.98 -32 48 C-31.34 48 -30.68 48 -30 48 C-30 47.01 -30 46.02 -30 45 C-30.99 45 -31.98 45 -33 45 Z M-35 47 C-34.67 47.99 -34.34 48.98 -34 50 C-33.34 50 -32.68 50 -32 50 C-32.33 49.01 -32.66 48.02 -33 47 C-33.66 47 -34.32 47 -35 47 Z M-37 49 C-37 49.99 -37 50.98 -37 52 C-36.01 51.67 -35.02 51.34 -34 51 C-34.33 50.34 -34.66 49.68 -35 49 C-35.66 49 -36.32 49 -37 49 Z " fill="#B68F33" transform="translate(52,4)"/>
<path d="M0 0 C3.375 -0.125 3.375 -0.125 7 0 C9 2 9 2 9.125 5.125 C9.08375 6.07375 9.0425 7.0225 9 8 C9.66 8 10.32 8 11 8 C11 10.31 11 12.62 11 15 C10.34 15.33 9.68 15.66 9 16 C8.505 17.485 8.505 17.485 8 19 C7.34 19 6.68 19 6 19 C5.67 19.66 5.34 20.32 5 21 C3.35 21 1.7 21 0 21 C0 20.34 0 19.68 0 19 C-0.99 19 -1.98 19 -3 19 C-3 19.66 -3 20.32 -3 21 C-3.804375 21.12375 -4.60875 21.2475 -5.4375 21.375 C-6.283125 21.58125 -7.12875 21.7875 -8 22 C-8.33 22.66 -8.66 23.32 -9 24 C-11.31 24 -13.62 24 -16 24 C-16 24.66 -16 25.32 -16 26 C-16.66 26 -17.32 26 -18 26 C-18 26.66 -18 27.32 -18 28 C-18.66 28 -19.32 28 -20 28 C-20 28.66 -20 29.32 -20 30 C-20.66 30 -21.32 30 -22 30 C-22.33 30.66 -22.66 31.32 -23 32 C-22.67 29.36 -22.34 26.72 -22 24 C-22.66 23.67 -23.32 23.34 -24 23 C-22.35 21.35 -20.7 19.7 -19 18 C-18.67 18.66 -18.34 19.32 -18 20 C-17.34 20 -16.68 20 -16 20 C-16 19.34 -16 18.68 -16 18 C-15.34 18 -14.68 18 -14 18 C-14 17.34 -14 16.68 -14 16 C-13.34 16 -12.68 16 -12 16 C-12 15.34 -12 14.68 -12 14 C-11.34 14 -10.68 14 -10 14 C-10 13.34 -10 12.68 -10 12 C-9.34 12 -8.68 12 -8 12 C-8 11.34 -8 10.68 -8 10 C-7.34 10 -6.68 10 -6 10 C-6 9.34 -6 8.68 -6 8 C-5.34 8 -4.68 8 -4 8 C-4 6.68 -4 5.36 -4 4 C-3.34 4 -2.68 4 -2 4 C-2 3.34 -2 2.68 -2 2 C-1.34 2 -0.68 2 0 2 C0 1.34 0 0.68 0 0 Z " fill="#747474" transform="translate(52,4)"/>
<path d="M0 0 C0.99 0 1.98 0 3 0 C3 0.99 3 1.98 3 3 C4.32 3 5.64 3 7 3 C7.33 2.01 7.66 1.02 8 0 C9.00322648 3.00967944 9.03098357 4.4240277 8.6875 7.5 C8.56955078 8.66015625 8.56955078 8.66015625 8.44921875 9.84375 C8 12 8 12 6 15 C5.31822584 16.32567199 4.64808564 17.65753688 4 19 C4 18.01 4 17.02 4 16 C3.34 16 2.68 16 2 16 C2 17.32 2 18.64 2 20 C-2.38585329 20.70173653 -6.55790643 21.10834375 -11 21 C-11 19.35 -11 17.7 -11 16 C-11.66 16 -12.32 16 -13 16 C-13 15.34 -13 14.68 -13 14 C-14.32 14 -15.64 14 -17 14 C-17.66 14 -18.32 14 -19 14 C-18.49396008 11.83125748 -18.00016187 10.00032373 -17 8 C-17.66 8 -18.32 8 -19 8 C-19 6.35 -19 4.7 -19 3 C-18.34 3 -17.68 3 -17 3 C-17 2.34 -17 1.68 -17 1 C-15.02 1 -13.04 1 -11 1 C-11 1.66 -11 2.32 -11 3 C-11.66 3 -12.32 3 -13 3 C-13 4.32 -13 5.64 -13 7 C-12.34 7 -11.68 7 -11 7 C-11 8.32 -11 9.64 -11 11 C-9.35 11 -7.7 11 -6 11 C-6 11.66 -6 12.32 -6 13 C-3.69 13 -1.38 13 1 13 C1 11.68 1 10.36 1 9 C1.66 9 2.32 9 3 9 C2.87625 7.700625 2.7525 6.40125 2.625 5.0625 C2.55539063 4.33160156 2.48578125 3.60070313 2.4140625 2.84765625 C2.27742188 2.23792969 2.14078125 1.62820312 2 1 C1.34 0.67 0.68 0.34 0 0 Z " fill="#DFA212" transform="translate(19,43)"/>
<path d="M0 0 C2.31 0 4.62 0 7 0 C7 0.66 7 1.32 7 2 C6.34 2 5.68 2 5 2 C4.64035156 2.85271484 4.64035156 2.85271484 4.2734375 3.72265625 C2.74154841 6.46220023 0.88906571 8.26745695 -1.375 10.4375 C-7.26896017 15.98399199 -7.26896017 15.98399199 -11 23 C-12.65 23.33 -14.3 23.66 -16 24 C-16 24.66 -16 25.32 -16 26 C-16.66 26 -17.32 26 -18 26 C-18 26.66 -18 27.32 -18 28 C-18.66 28 -19.32 28 -20 28 C-20 28.66 -20 29.32 -20 30 C-20.66 30 -21.32 30 -22 30 C-22.33 30.66 -22.66 31.32 -23 32 C-22.67 29.36 -22.34 26.72 -22 24 C-22.66 23.67 -23.32 23.34 -24 23 C-22.35 21.35 -20.7 19.7 -19 18 C-18.67 18.66 -18.34 19.32 -18 20 C-17.34 20 -16.68 20 -16 20 C-16 19.34 -16 18.68 -16 18 C-15.34 18 -14.68 18 -14 18 C-14 17.34 -14 16.68 -14 16 C-13.34 16 -12.68 16 -12 16 C-12 15.34 -12 14.68 -12 14 C-11.34 14 -10.68 14 -10 14 C-10 13.34 -10 12.68 -10 12 C-9.34 12 -8.68 12 -8 12 C-8 11.34 -8 10.68 -8 10 C-7.34 10 -6.68 10 -6 10 C-6 9.34 -6 8.68 -6 8 C-5.34 8 -4.68 8 -4 8 C-4 6.68 -4 5.36 -4 4 C-3.34 4 -2.68 4 -2 4 C-2 3.34 -2 2.68 -2 2 C-1.34 2 -0.68 2 0 2 C0 1.34 0 0.68 0 0 Z " fill="#9A9A9A" transform="translate(52,4)"/>
<path d="M0 0 C-0.1875 1.875 -0.1875 1.875 -1 4 C-3.5 5.125 -3.5 5.125 -6 6 C-7.0206355 7.97653218 -7.0206355 7.97653218 -7.8125 10 C-9.24509892 12.41279818 -10.3698873 13.09589876 -13 14 C-13.66 13.67 -14.32 13.34 -15 13 C-15 13.66 -15 14.32 -15 15 C-16.32 15.33 -17.64 15.66 -19 16 C-19 15.34 -19 14.68 -19 14 C-19.99 14 -20.98 14 -22 14 C-22 12.68 -22 11.36 -22 10 C-21.34 10 -20.68 10 -20 10 C-20 8.02 -20 6.04 -20 4 C-18.68 3.34 -17.36 2.68 -16 2 C-16 2.66 -16 3.32 -16 4 C-15.34 4 -14.68 4 -14 4 C-14 3.34 -14 2.68 -14 2 C-13.34 2 -12.68 2 -12 2 C-12 3.32 -12 4.64 -12 6 C-11.34 6 -10.68 6 -10 6 C-10 5.34 -10 4.68 -10 4 C-9.34 4 -8.68 4 -8 4 C-8 3.34 -8 2.68 -8 2 C-7.34 2 -6.68 2 -6 2 C-6 1.34 -6 0.68 -6 0 C-3.50907189 -1.24546405 -2.58919267 -0.7767578 0 0 Z M-17 4 C-17.33 4.66 -17.66 5.32 -18 6 C-17.34 6 -16.68 6 -16 6 C-16.33 5.34 -16.66 4.68 -17 4 Z " fill="#7D7D7C" transform="translate(42,28)"/>
<path d="M0 0 C1.98 0 3.96 0 6 0 C6 0.66 6 1.32 6 2 C5.34 2 4.68 2 4 2 C4 3.32 4 4.64 4 6 C4.66 6 5.32 6 6 6 C6 7.32 6 8.64 6 10 C7.65 10 9.3 10 11 10 C11 10.66 11 11.32 11 12 C12.65 12 14.3 12 16 12 C16 12.66 16 13.32 16 14 C13.69 14 11.38 14 9 14 C9.33 15.65 9.66 17.3 10 19 C8.68 19.33 7.36 19.66 6 20 C6 18.35 6 16.7 6 15 C5.34 15 4.68 15 4 15 C4 14.34 4 13.68 4 13 C2.68 13 1.36 13 0 13 C-0.66 13 -1.32 13 -2 13 C-1.49396008 10.83125748 -1.00016187 9.00032373 0 7 C-0.66 7 -1.32 7 -2 7 C-2 5.35 -2 3.7 -2 2 C-1.34 2 -0.68 2 0 2 C0 1.34 0 0.68 0 0 Z " fill="#E4A007" transform="translate(2,44)"/>
<path d="M0 0 C0.66 0 1.32 0 2 0 C2 0.66 2 1.32 2 2 C2.66 2 3.32 2 4 2 C4.33 3.98 4.66 5.96 5 8 C4.01 8.33 3.02 8.66 2 9 C2 9.66 2 10.32 2 11 C2.66 11 3.32 11 4 11 C4 11.66 4 12.32 4 13 C3.01 12.67 2.02 12.34 1 12 C1 11.34 1 10.68 1 10 C0.34 10 -0.32 10 -1 10 C-1 10.99 -1 11.98 -1 13 C-1.66 13 -2.32 13 -3 13 C-3 12.34 -3 11.68 -3 11 C-3.99 11 -4.98 11 -6 11 C-6.33 9.68 -6.66 8.36 -7 7 C-6.34 6.67 -5.68 6.34 -5 6 C-5 5.34 -5 4.68 -5 4 C-5.66 4 -6.32 4 -7 4 C-7 3.34 -7 2.68 -7 2 C-6.01 2.33 -5.02 2.66 -4 3 C-4 3.66 -4 4.32 -4 5 C-3.34 5 -2.68 5 -2 5 C-2 4.34 -2 3.68 -2 3 C-1.34 3 -0.68 3 0 3 C0 2.01 0 1.02 0 0 Z " fill="#5B5852" transform="translate(16,43)"/>
<path d="M0 0 C1.32 0 2.64 0 4 0 C4 1.98 4 3.96 4 6 C4.66 6 5.32 6 6 6 C6 7.65 6 9.3 6 11 C3.03 10.505 3.03 10.505 0 10 C0 9.34 0 8.68 0 8 C-1.98 8 -3.96 8 -6 8 C-5.09970429 6.65555841 -4.17911978 5.32468562 -3.25 4 C-2.48429687 2.88625 -2.48429687 2.88625 -1.703125 1.75 C-0.86007813 0.88375 -0.86007813 0.88375 0 0 Z " fill="#7D7D7D" transform="translate(57,6)"/>
<path d="M0 0 C1.00322648 3.00967944 1.03098357 4.4240277 0.6875 7.5 C0.56955078 8.66015625 0.56955078 8.66015625 0.44921875 9.84375 C0 12 0 12 -2 15 C-2.68177416 16.32567199 -3.35191436 17.65753688 -4 19 C-4 18.01 -4 17.02 -4 16 C-4.66 16 -5.32 16 -6 16 C-6 17.32 -6 18.64 -6 20 C-6.99 20 -7.98 20 -9 20 C-9 18.68 -9 17.36 -9 16 C-8.34 16 -7.68 16 -7 16 C-7 15.34 -7 14.68 -7 14 C-6.34 14 -5.68 14 -5 14 C-5 13.01 -5 12.02 -5 11 C-4.01 11 -3.02 11 -2 11 C-2.061875 9.1128125 -2.061875 9.1128125 -2.125 7.1875 C-2.2390374 3.70935927 -2.05925681 3.08888522 0 0 Z " fill="#958362" transform="translate(27,43)"/>
<path d="M0 0 C0.99 0 1.98 0 3 0 C3.33 1.32 3.66 2.64 4 4 C4.66 4 5.32 4 6 4 C6 2.68 6 1.36 6 0 C6.99 0 7.98 0 9 0 C9 0.66 9 1.32 9 2 C10.65 2 12.3 2 14 2 C14 2.66 14 3.32 14 4 C11.69 4 9.38 4 7 4 C7.33 5.65 7.66 7.3 8 9 C6.68 9.33 5.36 9.66 4 10 C4 8.35 4 6.7 4 5 C3.34 5 2.68 5 2 5 C2 4.34 2 3.68 2 3 C1.34 3 0.68 3 0 3 C0 2.01 0 1.02 0 0 Z " fill="#AD8537" transform="translate(4,54)"/>
<path d="M0 0 C1.32 0 2.64 0 4 0 C4 0.99 4 1.98 4 3 C4.66 3 5.32 3 6 3 C6 3.66 6 4.32 6 5 C5.01 5 4.02 5 3 5 C3 5.66 3 6.32 3 7 C2.195625 7.12375 1.39125 7.2475 0.5625 7.375 C-0.7059375 7.684375 -0.7059375 7.684375 -2 8 C-2.33 8.66 -2.66 9.32 -3 10 C-3.66 9.67 -4.32 9.34 -5 9 C-4.67 7.35 -4.34 5.7 -4 4 C-3.01 3.67 -2.02 3.34 -1 3 C-0.67 2.01 -0.34 1.02 0 0 Z " fill="#787878" transform="translate(46,18)"/>
<path d="M0 0 C1.03115279 3.26913624 0.9638984 5.86041348 0.5625 9.25 C0.46066406 10.14203125 0.35882812 11.0340625 0.25390625 11.953125 C0.17011719 12.62859375 0.08632813 13.3040625 0 14 C-0.66 14 -1.32 14 -2 14 C-2 13.34 -2 12.68 -2 12 C-2.99 12 -3.98 12 -5 12 C-5 10.68 -5 9.36 -5 8 C-4.34 8 -3.68 8 -3 8 C-3.061875 7.05125 -3.12375 6.1025 -3.1875 5.125 C-3.125625 4.09375 -3.06375 3.0625 -3 2 C-2.01 1.34 -1.02 0.68 0 0 Z " fill="#626675" transform="translate(25,30)"/>
<path d="M0 0 C1.32 0 2.64 0 4 0 C3.45838092 3.79133356 2.00716275 5.66109564 -1 8 C-3.75 8.25 -3.75 8.25 -6 8 C-6 7.34 -6 6.68 -6 6 C-5.34 6 -4.68 6 -4 6 C-4 5.34 -4 4.68 -4 4 C-3.34 4 -2.68 4 -2 4 C-2 3.34 -2 2.68 -2 2 C-1.34 2 -0.68 2 0 2 C0 1.34 0 0.68 0 0 Z " fill="#A1A0A0" transform="translate(44,14)"/>
<path d="M0 0 C1.65 0.33 3.3 0.66 5 1 C5 1.66 5 2.32 5 3 C6.32 3 7.64 3 9 3 C8.67 3.99 8.34 4.98 8 6 C7.34 6 6.68 6 6 6 C5.67 6.66 5.34 7.32 5 8 C4.34 8 3.68 8 3 8 C3 7.01 3 6.02 3 5 C2.34 5 1.68 5 1 5 C0 3 0 3 0 0 Z " fill="#8E8D8D" transform="translate(52,17)"/>
<path d="M0 0 C0.66 0 1.32 0 2 0 C2.33 0.99 2.66 1.98 3 3 C2.34 3 1.68 3 1 3 C1.309375 4.36125 1.309375 4.36125 1.625 5.75 C2.0127245 9.11027897 1.80411967 10.24075815 0 13 C-0.66 13 -1.32 13 -2 13 C-1.49396008 10.83125748 -1.00016187 9.00032373 0 7 C-0.66 7 -1.32 7 -2 7 C-2 5.35 -2 3.7 -2 2 C-1.34 2 -0.68 2 0 2 C0 1.34 0 0.68 0 0 Z " fill="#A4914E" transform="translate(2,44)"/>
<path d="M0 0 C0.33 0.66 0.66 1.32 1 2 C3.02463255 2.65213292 3.02463255 2.65213292 5 3 C4.01 3.66 3.02 4.32 2 5 C2.66 5.33 3.32 5.66 4 6 C3.67 6.66 3.34 7.32 3 8 C3.66 8 4.32 8 5 8 C5 8.99 5 9.98 5 11 C4.01 11 3.02 11 2 11 C2 9.68 2 8.36 2 7 C1.34 7 0.68 7 0 7 C0 6.01 0 5.02 0 4 C-0.99 3.67 -1.98 3.34 -3 3 C-2.01 2.01 -1.02 1.02 0 0 Z " fill="#808080" transform="translate(50,14)"/>
<path d="M0 0 C0.99 0 1.98 0 3 0 C3 0.66 3 1.32 3 2 C3.66 2 4.32 2 5 2 C5 3.65 5 5.3 5 7 C2.03 6.505 2.03 6.505 -1 6 C-1 5.34 -1 4.68 -1 4 C-1.66 3.67 -2.32 3.34 -3 3 C-2.01 3 -1.02 3 0 3 C0 2.01 0 1.02 0 0 Z " fill="#969695" transform="translate(58,10)"/>
<path d="M0 0 C1.65 0 3.3 0 5 0 C5 0.66 5 1.32 5 2 C4.34 2 3.68 2 3 2 C2.566875 2.928125 2.566875 2.928125 2.125 3.875 C1 6 1 6 -1 8 C-1.99 8 -2.98 8 -4 8 C-4 7.34 -4 6.68 -4 6 C-3.34 6 -2.68 6 -2 6 C-2 5.34 -2 4.68 -2 4 C-1.34 4 -0.68 4 0 4 C0 2.68 0 1.36 0 0 Z " fill="#A8A8A8" transform="translate(54,4)"/>
<path d="M0 0 C-0.33 1.98 -0.66 3.96 -1 6 C-1.66 6 -2.32 6 -3 6 C-3 5.34 -3 4.68 -3 4 C-3.99 4 -4.98 4 -6 4 C-6.33 2.68 -6.66 1.36 -7 0 C-2.25 -1.125 -2.25 -1.125 0 0 Z " fill="#454758" transform="translate(16,50)"/>
<path d="M0 0 C-0.33 0.99 -0.66 1.98 -1 3 C-1.99 3.33 -2.98 3.66 -4 4 C-4.66 3.67 -5.32 3.34 -6 3 C-6 3.66 -6 4.32 -6 5 C-6.66 5 -7.32 5 -8 5 C-7.625 2.5625 -7.625 2.5625 -7 0 C-4.3333581 -1.33332095 -2.83319697 -0.67102033 0 0 Z " fill="#757574" transform="translate(33,38)"/>
<path d="M0 0 C0.99 0 1.98 0 3 0 C3 0.99 3 1.98 3 3 C3.66 3 4.32 3 5 3 C5 3.66 5 4.32 5 5 C4.01 5 3.02 5 2 5 C2 5.66 2 6.32 2 7 C1.34 7 0.68 7 0 7 C0 4.69 0 2.38 0 0 Z " fill="#606060" transform="translate(47,18)"/>
<path d="M0 0 C0.99 0 1.98 0 3 0 C3 0.66 3 1.32 3 2 C4.65 2 6.3 2 8 2 C8 2.66 8 3.32 8 4 C5.69 4 3.38 4 1 4 C0.67 2.68 0.34 1.36 0 0 Z " fill="#96773C" transform="translate(10,54)"/>
<path d="M0 0 C0.66 0 1.32 0 2 0 C2 1.32 2 2.64 2 4 C1.34 4 0.68 4 0 4 C0 4.66 0 5.32 0 6 C-1.32 6 -2.64 6 -4 6 C-4 5.34 -4 4.68 -4 4 C-3.34 4 -2.68 4 -2 4 C-2 3.34 -2 2.68 -2 2 C-1.34 2 -0.68 2 0 2 C0 1.34 0 0.68 0 0 Z " fill="#6F6F6F" transform="translate(52,4)"/>
<path d="M0 0 C0.66 0 1.32 0 2 0 C2 1.65 2 3.3 2 5 C1.34 4.67 0.68 4.34 0 4 C0 2.68 0 1.36 0 0 Z " fill="#99775F" transform="translate(28,48)"/>
<path d="M0 0 C0.99 0 1.98 0 3 0 C3 0.66 3 1.32 3 2 C1.68 1.67 0.36 1.34 -1 1 C-0.67 0.67 -0.34 0.34 0 0 Z " fill="#8F8F69" transform="translate(15,34)"/>
<path d="M0 0 C0.66 0 1.32 0 2 0 C1.67 1.32 1.34 2.64 1 4 C0.67 2.68 0.34 1.36 0 0 Z " fill="#878787" transform="translate(62,8)"/>
<path d="M0 0 C0.99 0.33 1.98 0.66 3 1 C2.01 1.33 1.02 1.66 0 2 C0 1.34 0 0.68 0 0 Z " fill="#737373" transform="translate(40,14)"/>
<path d="M0 0 C0.66 0.66 1.32 1.32 2 2 C1.01 1.67 0.02 1.34 -1 1 C-0.67 0.67 -0.34 0.34 0 0 Z " fill="#717171" transform="translate(53,26)"/>
<path d="M0 0 C0.33 0.66 0.66 1.32 1 2 C0.34 1.67 -0.32 1.34 -1 1 C-0.67 0.67 -0.34 0.34 0 0 Z " fill="#8B8B6D" transform="translate(3,40)"/>
<path d="M0 0 C0.66 0 1.32 0 2 0 C1.67 0.66 1.34 1.32 1 2 C0.67 1.34 0.34 0.68 0 0 Z " fill="#6D6D6D" transform="translate(18,36)"/>
<path d="M0 0 C0.33 0.66 0.66 1.32 1 2 C0.34 1.67 -0.32 1.34 -1 1 C-0.67 0.67 -0.34 0.34 0 0 Z " fill="#8B8B8B" transform="translate(27,28)"/>
<path d="M0 0 C0.33 0.66 0.66 1.32 1 2 C0.34 1.67 -0.32 1.34 -1 1 C-0.67 0.67 -0.34 0.34 0 0 Z " fill="#8B8B8B" transform="translate(37,18)"/>
<path d="M0 0 C3 1 3 1 3 1 Z " fill="#626262" transform="translate(54,2)"/>
<path d="M0 0 C2 1 2 1 2 1 Z " fill="#7C7C7C" transform="translate(0,43)"/>
<path d="" fill="#7C7C7C" transform="translate(0,0)"/>
<path d="" fill="#7C7C7C" transform="translate(0,0)"/>
<path d="" fill="#7C7C7C" transform="translate(0,0)"/>
<path d="" fill="#515151" transform="translate(0,0)"/>
<path d="" fill="#7C7C7C" transform="translate(0,0)"/>
<path d="" fill="#7C7C7C" transform="translate(0,0)"/>
<path d="" fill="#7C7C7C" transform="translate(0,0)"/>
<path d="" fill="#7C7C7C" transform="translate(0,0)"/>
<path d="" fill="#7C7C7C" transform="translate(0,0)"/>
<path d="" fill="#7C7C7C" transform="translate(0,0)"/>
<path d="" fill="#656565" transform="translate(0,0)"/>
<path d="" fill="#7C7C7C" transform="translate(0,0)"/>
<path d="" fill="#7C7C7C" transform="translate(0,0)"/>
</svg>
